<?plantuml 1.2026.2beta2?><svg xmlns="http://www.w3.org/2000/svg" xmlns:xlink="http://www.w3.org/1999/xlink" contentStyleType="text/css" data-diagram-type="CLASS" height="762px" preserveAspectRatio="none" style="width:638px;height:762px;background:#FFFFFF;" version="1.1" viewBox="0 0 638 762" width="638px" zoomAndPan="magnify"><title>Command Design Pattern - Payment Processing</title><defs/><g><g class="title" data-source-line="1"><text fill="#000000" font-family="sans-serif" font-size="14" font-weight="bold" lengthAdjust="spacing" textLength="377.9863" x="123.0714" y="22.9951">Command Design Pattern - Payment Processing</text></g><!--class PaymentCommand--><g class="entity" data-qualified-name="PaymentCommand" data-source-line="4" id="ent0002"><rect fill="#F1F1F1" height="80.5938" rx="2.5" ry="2.5" style="stroke:#181818;stroke-width:0.5;" width="165.875" x="202.25" y="343.4769"/><ellipse cx="217.25" cy="359.4769" fill="#B4A7E5" rx="11" ry="11" style="stroke:#181818;stroke-width:1;"/><path d="M213.1719,355.2425 L213.1719,353.0862 L220.5625,353.0862 L220.5625,355.2425 L218.0938,355.2425 L218.0938,363.3206 L220.5625,363.3206 L220.5625,365.4769 L213.1719,365.4769 L213.1719,363.3206 L215.6406,363.3206 L215.6406,355.2425 L213.1719,355.2425 Z " fill="#000000"/><text fill="#000000" font-family="sans-serif" font-size="14" font-style="italic" lengthAdjust="spacing" textLength="133.875" x="231.25" y="364.3236">PaymentCommand</text><line style="stroke:#181818;stroke-width:0.5;" x1="203.25" x2="367.125" y1="375.4769" y2="375.4769"/><line style="stroke:#181818;stroke-width:0.5;" x1="203.25" x2="367.125" y1="383.4769" y2="383.4769"/><g data-visibility-modifier="PUBLIC_METHOD"><ellipse cx="213.25" cy="397.1253" fill="#84BE84" rx="3" ry="3" style="stroke:#038048;stroke-width:1;"/></g><text fill="#000000" font-family="sans-serif" font-size="14" lengthAdjust="spacing" textLength="67.1084" x="222.25" y="400.472">execute()</text><g data-visibility-modifier="PUBLIC_METHOD"><ellipse cx="213.25" cy="413.4222" fill="#84BE84" rx="3" ry="3" style="stroke:#038048;stroke-width:1;"/></g><text fill="#000000" font-family="sans-serif" font-size="14" lengthAdjust="spacing" textLength="46.1221" x="222.25" y="416.7689">undo()</text></g><!--class CreditCardPaymentService--><g class="entity" data-qualified-name="CreditCardPaymentService" data-source-line="10" id="ent0003"><rect fill="#F1F1F1" height="80.5938" rx="2.5" ry="2.5" style="stroke:#181818;stroke-width:0.5;" width="221.0684" x="33.66" y="675.2669"/><ellipse cx="48.66" cy="691.2669" fill="#ADD1B2" rx="11" ry="11" style="stroke:#181818;stroke-width:1;"/><path d="M51.6288,696.9075 Q51.0506,697.2044 50.41,697.345 Q49.7694,697.5012 49.0663,697.5012 Q46.5663,697.5012 45.2381,695.8606 Q43.9256,694.2044 43.9256,691.0794 Q43.9256,687.9544 45.2381,686.2981 Q46.5663,684.6419 49.0663,684.6419 Q49.7694,684.6419 50.41,684.7981 Q51.0663,684.9544 51.6288,685.2512 L51.6288,687.97 Q51.0038,687.3919 50.41,687.1262 Q49.8163,686.845 49.1913,686.845 Q47.8475,686.845 47.16,687.9231 Q46.4725,688.9856 46.4725,691.0794 Q46.4725,693.1731 47.16,694.2512 Q47.8475,695.3137 49.1913,695.3137 Q49.8163,695.3137 50.41,695.0481 Q51.0038,694.7669 51.6288,694.1887 L51.6288,696.9075 Z " fill="#000000"/><text fill="#000000" font-family="sans-serif" font-size="14" lengthAdjust="spacing" textLength="189.0684" x="62.66" y="696.1136">CreditCardPaymentService</text><line style="stroke:#181818;stroke-width:0.5;" x1="34.66" x2="253.7284" y1="707.2669" y2="707.2669"/><line style="stroke:#181818;stroke-width:0.5;" x1="34.66" x2="253.7284" y1="715.2669" y2="715.2669"/><g data-visibility-modifier="PUBLIC_METHOD"><ellipse cx="44.66" cy="728.9153" fill="#84BE84" rx="3" ry="3" style="stroke:#038048;stroke-width:1;"/></g><text fill="#000000" font-family="sans-serif" font-size="14" lengthAdjust="spacing" textLength="147.5742" x="53.66" y="732.262">pay(amount: double)</text><g data-visibility-modifier="PUBLIC_METHOD"><ellipse cx="44.66" cy="745.2122" fill="#84BE84" rx="3" ry="3" style="stroke:#038048;stroke-width:1;"/></g><text fill="#000000" font-family="sans-serif" font-size="14" lengthAdjust="spacing" textLength="167.7539" x="53.66" y="748.5589">refund(amount: double)</text></g><!--class UpiPaymentService--><g class="entity" data-qualified-name="UpiPaymentService" data-source-line="15" id="ent0004"><rect fill="#F1F1F1" height="80.5938" rx="2.5" ry="2.5" style="stroke:#181818;stroke-width:0.5;" width="193.7539" x="330.31" y="675.2669"/><ellipse cx="356.5912" cy="691.2669" fill="#ADD1B2" rx="11" ry="11" style="stroke:#181818;stroke-width:1;"/><path d="M359.56,696.9075 Q358.9818,697.2044 358.3412,697.345 Q357.7006,697.5012 356.9975,697.5012 Q354.4975,697.5012 353.1693,695.8606 Q351.8568,694.2044 351.8568,691.0794 Q351.8568,687.9544 353.1693,686.2981 Q354.4975,684.6419 356.9975,684.6419 Q357.7006,684.6419 358.3412,684.7981 Q358.9975,684.9544 359.56,685.2512 L359.56,687.97 Q358.935,687.3919 358.3412,687.1262 Q357.7475,686.845 357.1225,686.845 Q355.7787,686.845 355.0912,687.9231 Q354.4037,688.9856 354.4037,691.0794 Q354.4037,693.1731 355.0912,694.2512 Q355.7787,695.3137 357.1225,695.3137 Q357.7475,695.3137 358.3412,695.0481 Q358.935,694.7669 359.56,694.1887 L359.56,696.9075 Z " fill="#000000"/><text fill="#000000" font-family="sans-serif" font-size="14" lengthAdjust="spacing" textLength="136.6846" x="373.0981" y="696.1136">UpiPaymentService</text><line style="stroke:#181818;stroke-width:0.5;" x1="331.31" x2="523.0639" y1="707.2669" y2="707.2669"/><line style="stroke:#181818;stroke-width:0.5;" x1="331.31" x2="523.0639" y1="715.2669" y2="715.2669"/><g data-visibility-modifier="PUBLIC_METHOD"><ellipse cx="341.31" cy="728.9153" fill="#84BE84" rx="3" ry="3" style="stroke:#038048;stroke-width:1;"/></g><text fill="#000000" font-family="sans-serif" font-size="14" lengthAdjust="spacing" textLength="147.5742" x="350.31" y="732.262">pay(amount: double)</text><g data-visibility-modifier="PUBLIC_METHOD"><ellipse cx="341.31" cy="745.2122" fill="#84BE84" rx="3" ry="3" style="stroke:#038048;stroke-width:1;"/></g><text fill="#000000" font-family="sans-serif" font-size="14" lengthAdjust="spacing" textLength="167.7539" x="350.31" y="748.5589">refund(amount: double)</text></g><!--class CreditCardPaymentCommand--><g class="entity" data-qualified-name="CreditCardPaymentCommand" data-source-line="21" id="ent0005"><rect fill="#F1F1F1" height="113.1875" rx="2.5" ry="2.5" style="stroke:#181818;stroke-width:0.5;" width="274.3838" x="7" y="485.0769"/><ellipse cx="36.8957" cy="501.0769" fill="#ADD1B2" rx="11" ry="11" style="stroke:#181818;stroke-width:1;"/><path d="M39.8645,506.7175 Q39.2863,507.0144 38.6457,507.155 Q38.0051,507.3113 37.302,507.3113 Q34.802,507.3113 33.4738,505.6706 Q32.1613,504.0144 32.1613,500.8894 Q32.1613,497.7644 33.4738,496.1081 Q34.802,494.4519 37.302,494.4519 Q38.0051,494.4519 38.6457,494.6081 Q39.302,494.7644 39.8645,495.0613 L39.8645,497.78 Q39.2395,497.2019 38.6457,496.9363 Q38.052,496.655 37.427,496.655 Q36.0832,496.655 35.3957,497.7331 Q34.7082,498.7956 34.7082,500.8894 Q34.7082,502.9831 35.3957,504.0613 Q36.0832,505.1238 37.427,505.1238 Q38.052,505.1238 38.6457,504.8581 Q39.2395,504.5769 39.8645,503.9988 L39.8645,506.7175 Z " fill="#000000"/><text fill="#000000" font-family="sans-serif" font-size="14" lengthAdjust="spacing" textLength="209.2822" x="54.2059" y="505.9236">CreditCardPaymentCommand</text><line style="stroke:#181818;stroke-width:0.5;" x1="8" x2="280.3838" y1="517.0769" y2="517.0769"/><g data-visibility-modifier="PRIVATE_FIELD"><rect fill="none" height="6" style="stroke:#C82930;stroke-width:1;" width="6" x="15" y="527.7253"/></g><text fill="#000000" font-family="sans-serif" font-size="14" lengthAdjust="spacing" textLength="248.3838" x="27" y="534.072">service: CreditCardPaymentService</text><g data-visibility-modifier="PRIVATE_FIELD"><rect fill="none" height="6" style="stroke:#C82930;stroke-width:1;" width="6" x="15" y="544.0222"/></g><text fill="#000000" font-family="sans-serif" font-size="14" lengthAdjust="spacing" textLength="110.8994" x="27" y="550.3689">amount: double</text><line style="stroke:#181818;stroke-width:0.5;" x1="8" x2="280.3838" y1="557.6706" y2="557.6706"/><g data-visibility-modifier="PUBLIC_METHOD"><ellipse cx="18" cy="571.3191" fill="#84BE84" rx="3" ry="3" style="stroke:#038048;stroke-width:1;"/></g><text fill="#000000" font-family="sans-serif" font-size="14" lengthAdjust="spacing" textLength="67.1084" x="27" y="574.6657">execute()</text><g data-visibility-modifier="PUBLIC_METHOD"><ellipse cx="18" cy="587.6159" fill="#84BE84" rx="3" ry="3" style="stroke:#038048;stroke-width:1;"/></g><text fill="#000000" font-family="sans-serif" font-size="14" lengthAdjust="spacing" textLength="46.1221" x="27" y="590.9626">undo()</text></g><!--class UpiPaymentCommand--><g class="entity" data-qualified-name="UpiPaymentCommand" data-source-line="28" id="ent0006"><rect fill="#F1F1F1" height="113.1875" rx="2.5" ry="2.5" style="stroke:#181818;stroke-width:0.5;" width="222" x="316.19" y="485.0769"/><ellipse cx="346.0857" cy="501.0769" fill="#ADD1B2" rx="11" ry="11" style="stroke:#181818;stroke-width:1;"/><path d="M349.0545,506.7175 Q348.4763,507.0144 347.8357,507.155 Q347.1951,507.3113 346.492,507.3113 Q343.992,507.3113 342.6638,505.6706 Q341.3513,504.0144 341.3513,500.8894 Q341.3513,497.7644 342.6638,496.1081 Q343.992,494.4519 346.492,494.4519 Q347.1951,494.4519 347.8357,494.6081 Q348.492,494.7644 349.0545,495.0613 L349.0545,497.78 Q348.4295,497.2019 347.8357,496.9363 Q347.242,496.655 346.617,496.655 Q345.2732,496.655 344.5857,497.7331 Q343.8982,498.7956 343.8982,500.8894 Q343.8982,502.9831 344.5857,504.0613 Q345.2732,505.1238 346.617,505.1238 Q347.242,505.1238 347.8357,504.8581 Q348.4295,504.5769 349.0545,503.9988 L349.0545,506.7175 Z " fill="#000000"/><text fill="#000000" font-family="sans-serif" font-size="14" lengthAdjust="spacing" textLength="156.8984" x="363.3959" y="505.9236">UpiPaymentCommand</text><line style="stroke:#181818;stroke-width:0.5;" x1="317.19" x2="537.19" y1="517.0769" y2="517.0769"/><g data-visibility-modifier="PRIVATE_FIELD"><rect fill="none" height="6" style="stroke:#C82930;stroke-width:1;" width="6" x="324.19" y="527.7253"/></g><text fill="#000000" font-family="sans-serif" font-size="14" lengthAdjust="spacing" textLength="196" x="336.19" y="534.072">service: UpiPaymentService</text><g data-visibility-modifier="PRIVATE_FIELD"><rect fill="none" height="6" style="stroke:#C82930;stroke-width:1;" width="6" x="324.19" y="544.0222"/></g><text fill="#000000" font-family="sans-serif" font-size="14" lengthAdjust="spacing" textLength="110.8994" x="336.19" y="550.3689">amount: double</text><line style="stroke:#181818;stroke-width:0.5;" x1="317.19" x2="537.19" y1="557.6706" y2="557.6706"/><g data-visibility-modifier="PUBLIC_METHOD"><ellipse cx="327.19" cy="571.3191" fill="#84BE84" rx="3" ry="3" style="stroke:#038048;stroke-width:1;"/></g><text fill="#000000" font-family="sans-serif" font-size="14" lengthAdjust="spacing" textLength="67.1084" x="336.19" y="574.6657">execute()</text><g data-visibility-modifier="PUBLIC_METHOD"><ellipse cx="327.19" cy="587.6159" fill="#84BE84" rx="3" ry="3" style="stroke:#038048;stroke-width:1;"/></g><text fill="#000000" font-family="sans-serif" font-size="14" lengthAdjust="spacing" textLength="46.1221" x="336.19" y="590.9626">undo()</text></g><!--class CheckoutService--><g class="entity" data-qualified-name="CheckoutService" data-source-line="36" id="ent0007"><rect fill="#F1F1F1" height="96.8906" rx="2.5" ry="2.5" style="stroke:#181818;stroke-width:0.5;" width="365.8691" x="265.26" y="169.5869"/><ellipse cx="385.0769" cy="185.5869" fill="#ADD1B2" rx="11" ry="11" style="stroke:#181818;stroke-width:1;"/><path d="M388.0456,191.2275 Q387.4675,191.5244 386.8269,191.665 Q386.1863,191.8212 385.4831,191.8212 Q382.9831,191.8212 381.655,190.1806 Q380.3425,188.5244 380.3425,185.3994 Q380.3425,182.2744 381.655,180.6181 Q382.9831,178.9619 385.4831,178.9619 Q386.1863,178.9619 386.8269,179.1181 Q387.4831,179.2744 388.0456,179.5712 L388.0456,182.29 Q387.4206,181.7119 386.8269,181.4462 Q386.2331,181.165 385.6081,181.165 Q384.2644,181.165 383.5769,182.2431 Q382.8894,183.3056 382.8894,185.3994 Q382.8894,187.4931 383.5769,188.5712 Q384.2644,189.6337 385.6081,189.6337 Q386.2331,189.6337 386.8269,189.3681 Q387.4206,189.0869 388.0456,188.5087 L388.0456,191.2275 Z " fill="#000000"/><text fill="#000000" font-family="sans-serif" font-size="14" lengthAdjust="spacing" textLength="117.7354" x="405.5769" y="190.4336">CheckoutService</text><line style="stroke:#181818;stroke-width:0.5;" x1="266.26" x2="630.1291" y1="201.5869" y2="201.5869"/><g data-visibility-modifier="PRIVATE_FIELD"><rect fill="none" height="6" style="stroke:#C82930;stroke-width:1;" width="6" x="273.26" y="212.2353"/></g><text fill="#000000" font-family="sans-serif" font-size="14" lengthAdjust="spacing" textLength="324.9463" x="285.26" y="218.582">commandHistory: Stack&lt;PaymentCommand&gt;</text><line style="stroke:#181818;stroke-width:0.5;" x1="266.26" x2="630.1291" y1="225.8837" y2="225.8837"/><g data-visibility-modifier="PUBLIC_METHOD"><ellipse cx="276.26" cy="239.5322" fill="#84BE84" rx="3" ry="3" style="stroke:#038048;stroke-width:1;"/></g><text fill="#000000" font-family="sans-serif" font-size="14" lengthAdjust="spacing" textLength="339.8691" x="285.26" y="242.8789">processPayment(command: PaymentCommand)</text><g data-visibility-modifier="PUBLIC_METHOD"><ellipse cx="276.26" cy="255.8291" fill="#84BE84" rx="3" ry="3" style="stroke:#038048;stroke-width:1;"/></g><text fill="#000000" font-family="sans-serif" font-size="14" lengthAdjust="spacing" textLength="147.9365" x="285.26" y="259.1757">refundLastPayment()</text></g><!--class PaymentClient--><g class="entity" data-qualified-name="PaymentClient" data-source-line="43" id="ent0008"><rect fill="#F1F1F1" height="64.2969" rx="2.5" ry="2.5" style="stroke:#181818;stroke-width:0.5;" width="134.4502" x="164.97" y="44.2969"/><ellipse cx="179.97" cy="60.2969" fill="#ADD1B2" rx="11" ry="11" style="stroke:#181818;stroke-width:1;"/><path d="M182.9388,65.9375 Q182.3606,66.2344 181.72,66.375 Q181.0794,66.5313 180.3763,66.5313 Q177.8763,66.5313 176.5481,64.8906 Q175.2356,63.2344 175.2356,60.1094 Q175.2356,56.9844 176.5481,55.3281 Q177.8763,53.6719 180.3763,53.6719 Q181.0794,53.6719 181.72,53.8281 Q182.3763,53.9844 182.9388,54.2813 L182.9388,57 Q182.3138,56.4219 181.72,56.1563 Q181.1263,55.875 180.5013,55.875 Q179.1575,55.875 178.47,56.9531 Q177.7825,58.0156 177.7825,60.1094 Q177.7825,62.2031 178.47,63.2813 Q179.1575,64.3438 180.5013,64.3438 Q181.1263,64.3438 181.72,64.0781 Q182.3138,63.7969 182.9388,63.2188 L182.9388,65.9375 Z " fill="#000000"/><text fill="#000000" font-family="sans-serif" font-size="14" lengthAdjust="spacing" textLength="102.4502" x="193.97" y="65.1436">PaymentClient</text><line style="stroke:#181818;stroke-width:0.5;" x1="165.97" x2="298.4202" y1="76.2969" y2="76.2969"/><line style="stroke:#181818;stroke-width:0.5;" x1="165.97" x2="298.4202" y1="84.2969" y2="84.2969"/><g data-visibility-modifier="PUBLIC_METHOD"><ellipse cx="175.97" cy="97.9453" fill="#84BE84" rx="3" ry="3" style="stroke:#038048;stroke-width:1;"/></g><text fill="#000000" font-family="sans-serif" font-size="14" lengthAdjust="spacing" textLength="45.9033" x="184.97" y="101.292">main()</text></g><!--reverse link PaymentCommand to CreditCardPaymentCommand--><g class="link" data-entity-1="ent0002" data-entity-2="ent0005" data-link-type="extension" data-source-line="48" id="lnk9"><path codeLine="48" d="M237.1757,437.8664 C220.6057,456.1864 212.74,464.8869 194.7,484.8269" fill="none" id="PaymentCommand-backto-CreditCardPaymentCommand" style="stroke:#181818;stroke-width:1;stroke-dasharray:7,7;"/><polygon fill="none" points="249.25,424.5169,232.7258,433.8416,241.6255,441.8912,249.25,424.5169" style="stroke:#181818;stroke-width:1;"/></g><!--reverse link PaymentCommand to UpiPaymentCommand--><g class="link" data-entity-1="ent0002" data-entity-2="ent0006" data-link-type="extension" data-source-line="49" id="lnk10"><path codeLine="49" d="M333.5082,437.8266 C350.1882,456.1466 358.16,464.8869 376.33,484.8269" fill="none" id="PaymentCommand-backto-UpiPaymentCommand" style="stroke:#181818;stroke-width:1;stroke-dasharray:7,7;"/><polygon fill="none" points="321.39,424.5169,329.0717,441.866,337.9448,433.7872,321.39,424.5169" style="stroke:#181818;stroke-width:1;"/></g><!--link CreditCardPaymentCommand to CreditCardPaymentService--><g class="link" data-entity-1="ent0005" data-entity-2="ent0003" data-link-type="dependency" data-source-line="51" id="lnk11"><path codeLine="51" d="M144.19,598.4769 C144.19,623.3769 144.19,646.1369 144.19,668.8069" fill="none" id="CreditCardPaymentCommand-to-CreditCardPaymentService" style="stroke:#181818;stroke-width:1;"/><polygon fill="#181818" points="144.19,674.8069,148.19,665.8069,144.19,669.8069,140.19,665.8069,144.19,674.8069" style="stroke:#181818;stroke-width:1;"/><text fill="#000000" font-family="sans-serif" font-size="13" lengthAdjust="spacing" textLength="29.7832" x="145.19" y="641.3338">uses</text></g><!--link UpiPaymentCommand to UpiPaymentService--><g class="link" data-entity-1="ent0006" data-entity-2="ent0004" data-link-type="dependency" data-source-line="52" id="lnk12"><path codeLine="52" d="M427.19,598.4769 C427.19,623.3769 427.19,646.1369 427.19,668.8069" fill="none" id="UpiPaymentCommand-to-UpiPaymentService" style="stroke:#181818;stroke-width:1;"/><polygon fill="#181818" points="427.19,674.8069,431.19,665.8069,427.19,669.8069,423.19,665.8069,427.19,674.8069" style="stroke:#181818;stroke-width:1;"/><text fill="#000000" font-family="sans-serif" font-size="13" lengthAdjust="spacing" textLength="29.7832" x="428.19" y="641.3338">uses</text></g><!--link CheckoutService to PaymentCommand--><g class="link" data-entity-1="ent0007" data-entity-2="ent0002" data-link-type="dependency" data-source-line="54" id="lnk13"><path codeLine="54" d="M400.61,266.8369 C376.46,291.0969 351.7034,315.965 328.8234,338.945" fill="none" id="CheckoutService-to-PaymentCommand" style="stroke:#181818;stroke-width:1;"/><polygon fill="#181818" points="324.59,343.1969,333.7747,339.6413,328.1178,339.6536,328.1055,333.9968,324.59,343.1969" style="stroke:#181818;stroke-width:1;"/><text fill="#000000" font-family="sans-serif" font-size="13" lengthAdjust="spacing" textLength="58.9443" x="367.19" y="309.5438">executes</text></g><!--link PaymentClient to CheckoutService--><g class="link" data-entity-1="ent0008" data-entity-2="ent0007" data-link-type="dependency" data-source-line="55" id="lnk14"><path codeLine="55" d="M280.94,108.9469 C308.43,126.7169 338.3206,146.0304 369.1306,165.9404" fill="none" id="PaymentClient-to-CheckoutService" style="stroke:#181818;stroke-width:1;"/><polygon fill="#181818" points="374.17,169.1969,368.782,160.9525,369.9705,166.4831,364.44,167.6717,374.17,169.1969" style="stroke:#181818;stroke-width:1;"/></g><!--link PaymentClient to PaymentCommand--><g class="link" data-entity-1="ent0008" data-entity-2="ent0002" data-link-type="dependency" data-source-line="56" id="lnk15"><path codeLine="56" d="M232.71,108.8469 C233.82,146.6069 237.31,211.7269 248.19,266.4769 C253.36,292.4569 260.3111,315.1361 268.1111,337.3361" fill="none" id="PaymentClient-to-PaymentCommand" style="stroke:#181818;stroke-width:1;"/><polygon fill="#181818" points="270.1,342.9969,270.8905,333.1798,268.4426,338.2796,263.3428,335.8317,270.1,342.9969" style="stroke:#181818;stroke-width:1;"/></g><?plantuml-src hLF1JiCm3BtdAt9Z27KVK8rTne5972OcFY2atcQjJQROdPY0VoSbwKRILKY8d9Bw-Tb-psNa6kJ2DeqobNm0mgsHAyKCpiZ2tquD69OhPpKGeTaASIFlktDEMXeFtYWDuRl0ypjczy1t8VsvWpVGBSFaDZnRKrb__xmGFuC6F8AZIAXhHIGN3YhaXN9Lf5s3EwAl4caFwZHHZMqDbxAoxMiDiO23ZQynYFc2WVZbWF_6UD76Q0TyLlQNKLA52WfzbACp1rXQ_nTnyrd7IWxK-4EjNeMbETezk7Js7UYzRJEj2ntQUKHYwqwbNBFI-rdQwppQ4dOnnYOniyosBR7gIH7t-DId6hlr_jbWJnCYSHKQXIPVqbenMaCxFFJkPjBEFgRJKQ-lWWVs236wAqKn7_ydIjaIa1ZQtMKD5px2HMvEXyu8IXbj9v4gzTrFcdy5aR9z0G00?></g></svg>